<?xml version="1.0" encoding="UTF-8" standalone="no"?>
<!-- Created with Inkscape (http://www.inkscape.org/) -->

<svg
   width="1849.3501"
   height="495.27573"
   viewBox="0 0 489.30719 131.0417"
   version="1.1"
   id="svg1"
   xml:space="preserve"
   xmlns="http://www.w3.org/2000/svg"
   xmlns:svg="http://www.w3.org/2000/svg"><defs
     id="defs1" /><g
     id="layer1"
     transform="translate(-355.90808,-534.19234)"><path
       id="path127"
       style="baseline-shift:baseline;display:inline;overflow:visible;vector-effect:none;fill:#8d4a5c;fill-opacity:1;fill-rule:evenodd;stroke:none;stroke-width:0.749999;stroke-linecap:round;stroke-linejoin:round;stroke-opacity:1;paint-order:stroke fill markers;enable-background:accumulate;stop-color:#000000"
       d="m 412.18835,572.32902 c -2.53308,5.0661 -4.74442,8.9913 -4.74442,14.7985 0,5.8073 2.21122,9.7345 4.74442,14.7991 2.5333,5.0647 5.75896,10.5263 8.96276,15.6502 1.84305,2.9475 3.68255,5.7838 5.36815,8.3287 -5.77729,-2.7042 -12.46154,-6.0008 -18.19269,-9.2687 -6.15354,-3.5088 -11.20833,-6.9842 -12.86175,-9.6588 -2.18943,-3.5416 -2.97095,-13.0491 -3.13779,-22.9402 -0.0448,-2.6551 -0.0455,-5.3381 -0.017,-7.9406 0.12038,-10.98661 0.75757,-20.54185 0.75757,-20.54185 0,0 11.22889,4.71911 22.52952,10.40411 -1.5237,2.64076 -2.14209,3.83631 -3.40872,6.36954 z m 52.97778,-6.36394 c 11.30158,-5.68563 22.53131,-10.40912 22.53131,-10.40912 0,0 0.63669,9.55474 0.75706,20.54136 0.0285,2.6024 0.0283,5.2855 -0.0165,7.9406 -0.16683,9.8911 -0.94888,19.3985 -3.13831,22.9402 -1.6534,2.6746 -6.70777,6.15 -12.86123,9.6588 -5.73181,3.2683 -12.41701,6.5653 -18.19476,9.2698 4.67012,-7.0518 10.47414,-16.2684 14.33143,-23.98 2.5332,-5.0646 4.74389,-8.9918 4.74389,-14.7991 0,-5.8072 -2.21089,-9.7324 -4.74389,-14.7985 -1.60814,-3.21629 -1.35083,-2.89572 -3.40896,-6.36404 m -4.04289,-6.84924 c -6.75232,-11.20204 -13.40834,-20.37159 -14.28274,-21.60116 -1.4904,-2.08521 -3.89594,-3.32252 -6.45904,-3.32227 v -7e-5 c -2.5631,-2.5e-4 -4.96864,1.23706 -6.45904,3.32227 0,0 -6.36386,8.90376 -12.77131,19.15594 -1.22255,1.95613 -0.32121,0.42696 -1.5105,2.44104 -11.11111,-5.6164 -22.17996,-10.31792 -23.50553,-10.8767 -0.88656,-0.37124 -1.82009,-0.57321 -2.75539,-0.60978 -1.55885,-0.061 -3.123,0.33781 -4.48551,1.18029 -2.18027,1.34754 -3.5758,3.66501 -3.74706,6.22236 0,0 -0.654,9.76837 -0.77515,21.05556 -11.28719,0.1211 -21.05505,0.7746 -21.05505,0.7746 -2.55736,0.1713 -4.87482,1.5668 -6.22236,3.7471 -1.34797,2.18 -1.56046,4.8768 -0.5705,7.2408 0.79318,1.8817 9.90446,23.393 18.18441,36.7937 2.13734,3.4591 3.86171,6.468 6.49212,9.0201 -5.82762,6.3119 -10.60194,12.1186 -10.60194,12.1186 -2.59416,3.15347 -1.31598,7.92267 2.50734,9.35647 2.18027,0.8121 18.13658,6.6781 29.42869,8.9907 4.16077,0.8521 7.43461,1.6911 11.64166,0.5638 4.20705,-1.1273 6.62149,-3.4908 9.79992,-6.3092 5.58817,-4.9553 12.11473,-12.16707 16.40624,-17.10017 4.29151,4.9331 10.81754,12.14487 16.40571,17.10017 3.17843,2.8184 5.59339,5.1819 9.80044,6.3092 4.20705,1.1273 7.48089,0.2883 11.64166,-0.5638 11.29212,-2.3126 27.24843,-8.1786 29.4287,-8.9907 3.82332,-1.4338 5.1015,-6.203 2.50734,-9.35647 0,0 -4.77372,-5.8061 -10.6009,-12.1176 2.62988,-2.5519 4.35398,-5.5604 6.49107,-9.0191 8.27994,-13.4007 17.39124,-34.9125 18.18441,-36.7941 0.98996,-2.3641 0.77746,-5.0609 -0.5705,-7.2409 -1.34754,-2.1803 -3.66501,-3.5753 -6.22236,-3.7465 0,0 -9.76834,-0.654 -21.05556,-0.7752 0,-6e-4 10e-6,-0.001 0,0 -0.12115,-11.28714 -0.77514,-21.05499 -0.77514,-21.05499 -0.17126,-2.55736 -1.56678,-4.87482 -3.74706,-6.22236 -1.3625,-0.84249 -2.92667,-1.24125 -4.48552,-1.18029 -0.93531,0.0366 -1.86881,0.23854 -2.75538,0.60978 -1.32565,0.55882 -12.39452,5.2641 -23.50617,10.88088 M 440.3815,542.13028 c 0,0 25.00002,34.99984 25.00002,44.99984 0,10 -25.00002,44.9817 -25.00002,44.9817 0,0 -25.00003,-34.9817 -25.00003,-44.9817 0,-10 25.00003,-44.99984 25.00003,-44.99984 z m 55.99658,41.89254 c 10.98667,0.1204 20.5419,0.7576 20.5419,0.7576 0,0 -14.0721,33.577 -22.94692,43.0428 -0.77151,0.8229 -1.50355,1.4636 -2.18385,1.8841 -0.77501,0.4791 -1.8357,0.8908 -3.12332,1.2433 -6.73113,1.8425 -19.66722,2.068 -30.45654,1.8655 1.98345,-0.9324 4.06363,-1.93 6.17224,-2.9703 4.52904,-2.2344 9.19522,-4.6619 13.4183,-7.136 0.8302,-0.4863 1.64346,-0.9742 2.43499,-1.463 1.28264,-0.7923 2.50369,-1.528 3.66231,-2.2743 3.19333,-2.0569 5.91387,-4.1945 8.15454,-7.8191 3.05364,-4.9396 3.23716,-9.4412 3.74654,-15.0823 0.34297,-3.7989 0.51374,-7.9175 0.57981,-12.0483 z m -111.9916,0 c 0.0661,4.1305 0.23738,8.2487 0.58032,12.0473 0.50938,5.6412 0.69239,10.1427 3.74603,15.0823 2.24069,3.6246 4.96167,5.7617 8.15505,7.8186 1.15859,0.7462 2.37917,1.482 3.66179,2.2743 0.79156,0.4889 1.60476,0.9771 2.43499,1.4635 4.22305,2.4742 8.88929,4.9017 13.4183,7.136 2.10887,1.0404 4.18961,2.0378 6.17327,2.9703 h 5.2e-4 c -5.2e-4,0 -23.72633,-0.023 -30.45757,-1.8655 -1.28763,-0.3525 -2.34779,-0.7643 -3.1228,-1.2434 -0.68029,-0.4205 -1.41287,-1.0612 -2.18437,-1.8841 -8.87483,-9.4658 -22.94692,-43.0428 -22.94692,-43.0428 0,0 9.55483,-0.6372 20.54139,-0.7576 z m 1.6707,53.1554 c 4.46058,2.3667 8.66766,2.5606 13.82653,3.0256 10.56318,0.9521 24.61216,0.5954 33.32252,0.2171 v 5e-4 c -6.63212,7.432 -16.11235,17.32457 -20.57084,18.51927 -7.24443,1.9411 -37.43957,-9.3798 -37.43957,-9.3798 0,0 4.95962,-6.02737 10.86136,-12.38267 z m 108.65227,10e-4 c 5.90121,6.3549 10.8598,12.38167 10.8598,12.38167 0,0 -30.19514,11.3209 -37.43957,9.3798 -4.45814,-1.1946 -13.93724,-11.08597 -20.56929,-18.51767 8.71049,0.3782 22.75797,0.7349 33.32045,-0.2171 5.15889,-0.465 9.36646,-0.6589 13.82706,-3.0256 3.8e-4,-2e-4 0.001,-9e-4 0.002,0 z" /><text
       xml:space="preserve"
       style="font-size:88.3491px;line-height:0;font-family:'Space Grotesk';-inkscape-font-specification:'Space Grotesk';text-align:center;letter-spacing:-3.96875px;writing-mode:lr-tb;direction:rtl;text-anchor:middle;fill:#8d4a5c;fill-opacity:1;fill-rule:evenodd;stroke-width:1.84061;stroke-linejoin:round;paint-order:stroke fill markers"
       x="691.6911"
       y="638.81293"
       id="text127"><tspan
         id="tspan127"
         style="letter-spacing:-3.96875px;fill:#8d4a5c;fill-opacity:1;stroke-width:1.84061"
         x="689.70673"
         y="638.81293">Mnemia</tspan></text></g></svg>
